# Blender v2.82 (sub 7) OBJ File: ''
# www.blender.org
mtllib tunnel.mtl
o Tunnel_Cylinder
v 0.000000 1.000000 -3.366647
v 0.000000 1.000000 3.366647
v 0.258819 0.965926 -3.366647
v 0.258819 0.965926 3.366647
v 0.500000 0.866026 -3.366647
v 0.500000 0.866025 3.366647
v 0.707107 0.707107 -3.366647
v 0.707107 0.707107 3.366647
v 0.866025 0.500000 -3.366647
v 0.866025 0.500000 3.366647
v 0.965926 0.258819 -3.366647
v 0.965926 0.258819 3.366647
v 1.000000 0.000000 -3.366647
v 1.000000 -0.000000 3.366647
v -1.000000 -0.443077 3.366647
v -1.000000 -0.443077 -3.366647
v 1.000000 -0.443077 3.366647
v 1.000000 -0.443076 -3.366647
v -1.000000 -0.000000 -3.366647
v -1.000000 -0.000001 3.366647
v -0.965926 0.258819 -3.366647
v -0.965926 0.258818 3.366647
v -0.866026 0.500000 -3.366647
v -0.866026 0.499999 3.366647
v -0.707107 0.707106 -3.366647
v -0.707107 0.707106 3.366647
v -0.500001 0.866025 -3.366647
v -0.500001 0.866025 3.366647
v -0.258820 0.965926 -3.366647
v -0.258820 0.965926 3.366647
v 0.000000 0.900000 -3.366647
v 0.000000 0.900000 3.366647
v 0.232939 0.869335 -3.366647
v 0.232939 0.869335 3.366647
v 0.450002 0.779423 -3.366647
v 0.450002 0.779423 3.366647
v 0.636398 0.636399 -3.366647
v 0.636398 0.636398 3.366647
v 0.779423 0.450002 -3.366647
v 0.779423 0.450001 3.366647
v 0.869335 0.232940 -3.366647
v 0.869335 0.232939 3.366647
v 0.900217 -0.006540 -3.366647
v 0.900217 -0.006540 3.366647
v -0.900000 -0.443077 3.366647
v -0.900000 -0.443077 -3.366647
v 0.900000 -0.443077 3.366647
v 0.900000 -0.443076 -3.366647
v -0.900217 -0.006540 -3.366647
v -0.900217 -0.006541 3.366647
v -0.869335 0.232939 -3.366647
v -0.869335 0.232939 3.366647
v -0.779423 0.450001 -3.366647
v -0.779423 0.450001 3.366647
v -0.636399 0.636398 -3.366647
v -0.636399 0.636398 3.366647
v -0.450002 0.779423 -3.366647
v -0.450002 0.779423 3.366647
v -0.232940 0.869335 -3.366647
v -0.232940 0.869334 3.366647
vt 0.812805 0.148516
vt 0.816687 0.110077
vt 0.827691 0.113921
vt 0.824198 0.148516
vt 0.973332 0.407108
vt 0.977214 0.445547
vt 0.965821 0.445547
vt 0.962327 0.410952
vt 0.828068 0.074258
vt 0.837935 0.081683
vt 0.961950 0.371289
vt 0.952084 0.378715
vt 0.846174 0.043499
vt 0.854230 0.054001
vt 0.943845 0.340531
vt 0.935789 0.351032
vt 0.869769 0.019897
vt 0.875466 0.032759
vt 0.920249 0.316929
vt 0.914553 0.329791
vt 0.897247 0.005061
vt 0.900196 0.019406
vt 0.892771 0.302092
vt 0.889823 0.316437
vt 0.926734 0.000000
vt 0.927479 0.014819
vt 0.863284 0.297031
vt 0.862539 0.311851
vt 0.977214 0.000000
vt 0.977214 0.014852
vt 0.812805 0.297031
vt 0.812805 0.311883
vt 0.863284 0.594063
vt 0.812805 0.594063
vt 0.812805 0.579211
vt 0.862539 0.579243
vt 0.977214 0.297031
vt 0.926734 0.297031
vt 0.927479 0.282212
vt 0.977214 0.282180
vt 1.000000 0.000000
vt 1.000000 1.000000
vt 0.988607 1.000000
vt 0.988607 0.000000
vt 0.988607 0.000000
vt 0.988607 1.000000
vt 0.977214 1.000000
vt 0.977214 0.000000
vt 0.897247 0.291971
vt 0.900196 0.277626
vt 0.892771 0.589002
vt 0.889823 0.574657
vt 0.869769 0.277134
vt 0.875466 0.264272
vt 0.920249 0.574166
vt 0.914553 0.561304
vt 0.846174 0.253532
vt 0.854230 0.243031
vt 0.943845 0.550564
vt 0.935789 0.540062
vt 0.828068 0.222774
vt 0.837935 0.215348
vt 0.961950 0.519805
vt 0.952084 0.512380
vt 0.816687 0.186954
vt 0.827691 0.183111
vt 0.973332 0.483986
vt 0.962327 0.480142
vt 0.075516 0.000000
vt 0.075516 1.000000
vt 0.046788 1.000000
vt 0.046788 0.000000
vt 0.021031 1.000000
vt 0.021031 0.000000
vt 0.000000 1.000000
vt 0.000000 0.000000
vt 0.304752 1.000000
vt 0.304752 0.000000
vt 0.328357 0.000000
vt 0.328358 1.000000
vt 0.355841 0.000000
vt 0.355841 1.000000
vt 0.385330 0.000000
vt 0.385331 1.000000
vt 0.435810 0.000000
vt 0.435810 1.000000
vt 0.516388 1.000000
vt 0.516388 0.000000
vt 0.566868 0.000000
vt 0.566868 1.000000
vt 0.486899 1.000000
vt 0.486899 0.000000
vt 0.459415 1.000000
vt 0.459415 0.000000
vt 0.435810 1.000000
vt 0.435810 0.000000
vt 0.159743 0.000000
vt 0.159743 1.000000
vt 0.133986 1.000000
vt 0.133986 0.000000
vt 0.105257 1.000000
vt 0.105257 0.000000
vt 0.232247 0.000000
vt 0.258786 0.000000
vt 0.258786 1.000000
vt 0.232247 1.000000
vt 0.283516 0.000000
vt 0.283516 1.000000
vt 0.304752 0.000000
vt 0.304752 1.000000
vt 0.689836 0.000000
vt 0.711064 0.000000
vt 0.711064 1.000000
vt 0.689836 1.000000
vt 0.735788 0.000000
vt 0.735788 1.000000
vt 0.763070 0.000000
vt 0.763070 1.000000
vt 0.812805 0.000000
vt 0.812805 1.000000
vt 0.640102 0.000000
vt 0.689836 0.000000
vt 0.689836 1.000000
vt 0.640102 1.000000
vt 0.612820 1.000000
vt 0.612820 0.000000
vt 0.588096 1.000000
vt 0.588095 0.000000
vt 0.566868 1.000000
vt 0.566868 0.000000
vt 0.159743 0.000000
vt 0.180979 0.000000
vt 0.180979 1.000000
vt 0.159743 1.000000
vt 0.205709 0.000000
vt 0.205709 1.000000
vn 0.0000 0.0000 -1.0000
vn 0.0000 0.0000 1.0000
vn 0.0000 -1.0000 -0.0000
vn 0.0000 0.7342 -0.6789
vn 0.0000 0.7342 0.6789
vn 0.1900 0.7092 0.6789
vn 0.1900 0.7092 -0.6789
vn 0.3671 0.6359 0.6789
vn 0.3671 0.6359 -0.6789
vn 0.5192 0.5192 0.6789
vn 0.5192 0.5192 -0.6789
vn 0.6359 0.3671 0.6789
vn 0.6359 0.3671 -0.6789
vn 0.7092 0.1900 0.6789
vn 0.7092 0.1900 -0.6789
vn 0.7197 0.0472 0.6926
vn 0.7197 0.0472 -0.6926
vn 0.5773 -0.5773 0.5773
vn 0.5773 -0.5773 -0.5773
vn -0.7197 0.0472 0.6926
vn -0.7197 0.0472 -0.6926
vn -0.5773 -0.5773 -0.5773
vn -0.5773 -0.5773 0.5773
vn -0.7092 0.1900 0.6789
vn -0.7092 0.1900 -0.6789
vn -0.6359 0.3671 0.6789
vn -0.6359 0.3671 -0.6789
vn -0.5192 0.5192 0.6789
vn -0.5192 0.5192 -0.6789
vn -0.3671 0.6359 0.6789
vn -0.3671 0.6359 -0.6789
vn -0.1900 0.7092 0.6789
vn -0.1900 0.7092 -0.6789
vn 0.0000 -0.6751 -0.7377
vn -0.1747 -0.6521 -0.7377
vn -0.1747 -0.6521 0.7377
vn 0.0000 -0.6751 0.7377
vn -0.3375 -0.5847 -0.7377
vn -0.3375 -0.5847 0.7377
vn -0.4774 -0.4774 -0.7377
vn -0.4774 -0.4774 0.7377
vn -0.5847 -0.3375 -0.7377
vn -0.5847 -0.3375 0.7377
vn -0.6520 -0.1738 -0.7380
vn -0.6520 -0.1738 0.7380
vn -0.6906 -0.0442 -0.7219
vn -0.6906 -0.0442 0.7219
vn -0.5775 -0.5772 -0.5773
vn -0.5775 -0.5772 0.5773
vn 0.6906 -0.0442 0.7219
vn 0.5775 -0.5772 0.5773
vn 0.5775 -0.5772 -0.5773
vn 0.6906 -0.0442 -0.7219
vn 0.6520 -0.1738 -0.7380
vn 0.6520 -0.1738 0.7380
vn 0.5847 -0.3375 -0.7377
vn 0.5847 -0.3375 0.7377
vn 0.4774 -0.4774 -0.7377
vn 0.4774 -0.4774 0.7377
vn 0.3375 -0.5847 -0.7377
vn 0.3375 -0.5847 0.7377
vn 0.1747 -0.6521 -0.7377
vn 0.1747 -0.6521 0.7377
usemtl None
s off
f 1/1/1 3/2/1 33/3/1 31/4/1
f 4/5/2 2/6/2 32/7/2 34/8/2
f 3/2/1 5/9/1 35/10/1 33/3/1
f 6/11/2 4/5/2 34/8/2 36/12/2
f 5/9/1 7/13/1 37/14/1 35/10/1
f 8/15/2 6/11/2 36/12/2 38/16/2
f 7/13/1 9/17/1 39/18/1 37/14/1
f 10/19/2 8/15/2 38/16/2 40/20/2
f 9/17/1 11/21/1 41/22/1 39/18/1
f 12/23/2 10/19/2 40/20/2 42/24/2
f 11/21/1 13/25/1 43/26/1 41/22/1
f 14/27/2 12/23/2 42/24/2 44/28/2
f 13/25/1 18/29/1 48/30/1 43/26/1
f 17/31/2 14/27/2 44/28/2 47/32/2
f 20/33/2 15/34/2 45/35/2 50/36/2
f 16/37/1 19/38/1 49/39/1 46/40/1
f 15/41/3 16/42/3 46/43/3 45/44/3
f 18/45/3 17/46/3 47/47/3 48/48/3
f 19/38/1 21/49/1 51/50/1 49/39/1
f 22/51/2 20/33/2 50/36/2 52/52/2
f 21/49/1 23/53/1 53/54/1 51/50/1
f 24/55/2 22/51/2 52/52/2 54/56/2
f 23/53/1 25/57/1 55/58/1 53/54/1
f 26/59/2 24/55/2 54/56/2 56/60/2
f 25/57/1 27/61/1 57/62/1 55/58/1
f 28/63/2 26/59/2 56/60/2 58/64/2
f 27/61/1 29/65/1 59/66/1 57/62/1
f 30/67/2 28/63/2 58/64/2 60/68/2
f 29/65/1 1/1/1 31/4/1 59/66/1
f 2/6/2 30/67/2 60/68/2 32/7/2
s 1
f 1/69/4 2/70/5 4/71/6 3/72/7
f 3/72/7 4/71/6 6/73/8 5/74/9
f 5/74/9 6/73/8 8/75/10 7/76/11
f 7/77/11 8/78/10 10/79/12 9/80/13
f 9/80/13 10/79/12 12/81/14 11/82/15
f 11/82/15 12/81/14 14/83/16 13/84/17
f 13/84/17 14/83/16 17/85/18 18/86/19
f 20/87/20 19/88/21 16/89/22 15/90/23
f 19/88/21 20/87/20 22/91/24 21/92/25
f 21/92/25 22/91/24 24/93/26 23/94/27
f 23/94/27 24/93/26 26/95/28 25/96/29
f 25/97/29 26/98/28 28/99/30 27/100/31
f 27/100/31 28/99/30 30/101/32 29/102/33
f 29/102/33 30/101/32 2/70/5 1/69/4
f 31/103/34 33/104/35 34/105/36 32/106/37
f 33/104/35 35/107/38 36/108/39 34/105/36
f 35/107/38 37/109/40 38/110/41 36/108/39
f 37/111/40 39/112/42 40/113/43 38/114/41
f 39/112/42 41/115/44 42/116/45 40/113/43
f 41/115/44 43/117/46 44/118/47 42/116/45
f 43/117/46 48/119/48 47/120/49 44/118/47
f 50/121/50 45/122/51 46/123/52 49/124/53
f 49/124/53 51/125/54 52/126/55 50/121/50
f 51/125/54 53/127/56 54/128/57 52/126/55
f 53/127/56 55/129/58 56/130/59 54/128/57
f 55/131/58 57/132/60 58/133/61 56/134/59
f 57/132/60 59/135/62 60/136/63 58/133/61
f 59/135/62 31/103/34 32/106/37 60/136/63
