# Blender v2.82 (sub 7) OBJ File: ''
# www.blender.org
mtllib rock2.mtl
o Rock2_Cube.002
v -1.401780 0.306821 1.221113
v -0.993093 2.923490 1.126898
v -1.000000 0.306821 -1.000000
v -0.374206 2.588390 -0.915910
v 2.274334 0.306821 1.000000
v 1.055021 4.527455 1.863819
v 1.217535 0.241222 -1.059309
v 1.007877 2.948925 -0.855270
v -1.460214 0.236337 0.000000
v -1.058434 1.513039 1.058434
v -1.065017 2.910078 0.060707
v -1.208737 1.468521 -1.134976
v 0.040416 0.294906 -1.461455
v -0.012019 3.150259 -0.865680
v 1.086535 1.501730 -1.068658
v 2.332343 0.234478 -0.001681
v 1.080397 3.847955 0.380842
v 1.551712 2.177643 1.021928
v 0.242344 -0.108281 1.361140
v 0.017296 3.744769 1.372658
v 0.052202 4.457073 0.959105
v 0.049419 0.097580 -0.001141
v 0.009900 1.572549 1.209924
v 1.201528 1.542842 0.017179
v -0.000755 1.524732 -1.172825
v -1.298735 1.500290 -0.024183
vt 0.846462 0.153913
vt 0.850343 0.327818
vt 0.732758 0.307284
vt 0.713761 0.147791
vt 0.565645 0.780495
vt 0.579522 0.579229
vt 0.699125 0.612939
vt 0.695017 0.791765
vt 0.547455 0.392879
vt 0.555996 0.113185
vt 0.713761 0.000000
vt 0.666207 0.306936
vt 0.203017 0.224112
vt 0.274745 0.479433
vt 0.131081 0.415936
vt 0.077712 0.252225
vt 0.162357 0.722341
vt 0.180588 1.000000
vt 0.061814 1.000000
vt 0.000000 0.756530
vt 0.947785 0.549822
vt 0.977251 0.336717
vt 1.000000 0.466756
vt 0.713761 0.705779
vt 0.832390 0.770913
vt 0.845390 0.822228
vt 0.716238 0.885654
vt 0.726155 0.555903
vt 0.845390 0.549822
vt 0.735359 0.385227
vt 0.152345 0.537931
vt 0.008343 0.553728
vt 0.275227 0.586443
vt 0.337643 0.709873
vt 0.298069 0.856420
vt 0.176069 0.019160
vt 0.000000 0.122136
vt 0.421360 0.000000
vt 0.398880 0.243824
vt 0.421360 0.537931
vt 0.604091 0.579229
vt 0.713761 0.546479
vt 0.442587 0.568902
vt 0.421360 0.418714
vt 0.424942 0.243375
vt 0.558962 0.934016
vt 0.699125 0.944843
vt 0.435783 0.915054
vt 0.421360 0.775262
vt 0.531211 0.644413
vt 0.854786 0.000000
vt 0.733665 0.018219
vt 1.000000 0.015924
vt 0.974767 0.168167
vn -0.9785 0.1782 -0.1040
vn -0.8727 0.4598 -0.1643
vn -0.4494 0.4137 -0.7918
vn -0.6766 0.1710 -0.7162
vn -0.0012 0.1381 -0.9904
vn -0.1889 0.5985 -0.7785
vn 0.6235 0.3892 -0.6780
vn 0.5989 0.2269 -0.7680
vn 0.9107 0.3030 -0.2808
vn 0.6511 0.6552 -0.3830
vn 0.4842 0.6346 0.6023
vn 0.8114 0.1776 0.5567
vn -0.0286 -0.0073 0.9995
vn -0.4133 0.4133 0.8114
vn -0.7189 0.2257 0.6574
vn -0.6905 0.1181 0.7136
vn -0.0305 -0.9964 -0.0788
vn 0.8237 -0.4062 -0.3956
vn 0.8361 -0.4035 0.3715
vn 0.0126 -0.7138 0.7002
vn -0.3533 0.9227 -0.1541
vn -0.8017 -0.5903 -0.0935
vn -0.6830 -0.4223 0.5958
vn -0.5428 -0.5952 -0.5925
vn -0.0045 -0.5557 -0.8314
vn 0.4927 -0.5338 -0.6872
usemtl Material.001
s 1
f 26/1/1 11/2/2 4/3/3 12/4/4
f 25/5/5 14/6/6 8/7/7 15/8/8
f 24/9/9 17/10/10 6/11/11 18/12/12
f 23/13/13 20/14/14 2/15/15 10/16/16
f 22/17/17 16/18/18 5/19/19 19/20/20
f 21/21/21 11/2/2 2/22/15 20/23/14
f 17/24/10 21/25/21 20/26/14 6/27/11
f 8/28/7 14/29/6 21/25/21 17/24/10
f 14/30/6 4/3/3 11/2/2 21/21/21
f 9/31/22 22/17/17 19/20/20 1/32/23
f 3/33/24 13/34/25 22/17/17 9/31/22
f 13/34/25 7/35/26 16/18/18 22/17/17
f 19/36/20 23/13/13 10/16/16 1/37/23
f 5/38/19 18/39/12 23/13/13 19/36/20
f 18/39/12 6/40/11 20/14/14 23/13/13
f 16/41/18 24/9/9 18/12/12 5/42/19
f 7/43/26 15/44/8 24/9/9 16/41/18
f 15/44/8 8/45/7 17/10/10 24/9/9
f 13/46/25 25/5/5 15/8/8 7/47/26
f 3/48/24 12/49/4 25/5/5 13/46/25
f 12/49/4 4/50/3 14/6/6 25/5/5
f 9/51/22 26/1/1 12/4/4 3/52/24
f 1/53/23 10/54/16 26/1/1 9/51/22
f 10/54/16 2/22/15 11/2/2 26/1/1
